<?xml version="1.0" encoding="UTF-8"?>
<svg version="1.1" xmlns="http://www.w3.org/2000/svg" width="395" height="361">
<path d="M0 0 C1.71993164 -0.00580078 1.71993164 -0.00580078 3.47460938 -0.01171875 C17.06598411 0.00349264 30.23566515 1.04500658 43.57910156 3.54418945 C45.69132312 3.93821318 47.80617409 4.31461461 49.921875 4.68945312 C58.51257227 6.24694449 66.75976003 8.40735434 75.0625 11.125 C77.4726883 11.83853903 79.89119405 12.51199073 82.3125 13.1875 C99.19351479 18.00535274 114.83350422 24.64714559 130.19970703 33.10546875 C131.84139233 34.00398484 133.49595877 34.87887971 135.15234375 35.75 C136.86993791 36.65685029 138.57172398 37.5949425 140.24836731 38.57543945 C143.04935299 40.19538932 143.04935299 40.19538932 146.1516571 41.34448242 C149.79614362 43.08733931 152.79067923 44.75056092 155.0625 48.125 C157.33181314 55.5200861 156.47739816 63.74382844 156.26953125 71.375 C156.24966436 73.67606832 156.23498889 75.97718678 156.2252655 78.27832031 C156.1852051 84.32661509 156.07229017 90.37146073 155.94476318 96.41845703 C155.82917323 102.55979274 155.78701881 108.70160085 155.73632812 114.84375 C155.64910483 123.82879273 155.54046665 132.81305974 155.36645508 141.796875 C155.35119781 142.72802124 155.33594055 143.65916748 155.32022095 144.61853027 C155.15249097 152.45549563 154.31487502 159.57671811 152.0625 167.125 C151.65726455 168.78779233 151.2636075 170.453431 150.87890625 172.12109375 C150.67330078 173.00990234 150.46769531 173.89871094 150.25585938 174.81445312 C149.83633335 176.64192407 149.41965136 178.4700503 149.00585938 180.29882812 C147.73074224 185.78461245 146.11914585 190.88333232 144.0625 196.125 C143.47847208 197.95158938 142.91195192 199.784022 142.375 201.625 C142.12363281 202.4809375 141.87226563 203.336875 141.61328125 204.21875 C141.43152344 204.8478125 141.24976563 205.476875 141.0625 206.125 C140.4025 206.125 139.7425 206.125 139.0625 206.125 C138.959375 206.98738281 138.85625 207.84976563 138.75 208.73828125 C138.01349919 212.36638465 136.78497268 215.0455987 135.0625 218.3125 C133.51974512 221.26079358 132.11511092 223.96716723 131.0625 227.125 C130.4025 227.125 129.7425 227.125 129.0625 227.125 C128.99160156 227.80304688 128.92070312 228.48109375 128.84765625 229.1796875 C127.81388228 233.05762567 125.75836264 235.99471374 123.5 239.25 C123.04963379 239.91088623 122.59926758 240.57177246 122.13525391 241.25268555 C108.50616571 261.15192514 108.50616571 261.15192514 102.0625 268.125 C101.4025 268.125 100.7425 268.125 100.0625 268.125 C99.7221875 268.9603125 99.7221875 268.9603125 99.375 269.8125 C97.69819499 272.76687072 95.48925648 274.75602343 93.0625 277.125 C92.134375 278.3315625 92.134375 278.3315625 91.1875 279.5625 C88.49426902 282.81021971 85.49752945 285.66294687 82.0625 288.125 C81.4025 288.125 80.7425 288.125 80.0625 288.125 C79.7325 289.115 79.4025 290.105 79.0625 291.125 C76.734375 293.31640625 76.734375 293.31640625 73.8125 295.6875 C72.85859375 296.47253906 71.9046875 297.25757813 70.921875 298.06640625 C68.31946635 299.93999827 66.08288092 301.10534586 63.0625 302.125 C63.0625 302.785 63.0625 303.445 63.0625 304.125 C61.7425 304.455 60.4225 304.785 59.0625 305.125 C59.0625 305.785 59.0625 306.445 59.0625 307.125 C57.04296875 308.60546875 57.04296875 308.60546875 54.25 310.3125 C53.24195313 310.93511719 52.23390625 311.55773437 51.1953125 312.19921875 C49.64457031 313.15248047 49.64457031 313.15248047 48.0625 314.125 C46.24832158 315.28905499 44.43577198 316.45565308 42.625 317.625 C32.8557704 323.80805671 23.07450126 329.21768717 12.56054688 334.01708984 C7.95017298 336.12996673 7.95017298 336.12996673 3.7265625 338.90625 C2.0625 340.125 2.0625 340.125 -1.5625 339.875 C-4.9375 339.125 -4.9375 339.125 -6.9375 338.125 C-6.9375 337.465 -6.9375 336.805 -6.9375 336.125 C-7.61167969 336.0321875 -8.28585938 335.939375 -8.98046875 335.84375 C-12.6817798 334.94409183 -15.88268985 333.35393675 -19.25 331.625 C-19.94641602 331.27115234 -20.64283203 330.91730469 -21.36035156 330.55273438 C-37.05806269 322.50298758 -51.77817817 313.52889723 -65.6875 302.6484375 C-69.81954457 299.41996653 -74.05039261 296.32806077 -78.28125 293.23046875 C-81.0608907 291.02719473 -83.46613458 288.66805388 -85.9375 286.125 C-86.97546505 285.10562386 -88.01596617 284.08882552 -89.05859375 283.07421875 C-94.35288886 277.88100804 -99.49095324 272.83559789 -103.7578125 266.73828125 C-105.02495085 264.91140879 -105.02495085 264.91140879 -107.3125 262.8125 C-117.9375 251.93452381 -117.9375 251.93452381 -117.9375 247.125 C-118.5975 247.125 -119.2575 247.125 -119.9375 247.125 C-121.06323242 245.69482422 -121.06323242 245.69482422 -122.29296875 243.6796875 C-122.74728271 242.93912109 -123.20159668 242.19855469 -123.66967773 241.43554688 C-124.14993408 240.63181641 -124.63019043 239.82808594 -125.125 239 C-125.61750244 238.18337891 -126.11000488 237.36675781 -126.61743164 236.52539062 C-132.63036831 226.44184046 -137.75883349 216.10316334 -141.9375 205.125 C-142.58270092 203.56223875 -143.22855325 201.99974631 -143.875 200.4375 C-149.0096229 187.42978865 -152.2126762 174.81755099 -154.53613281 161.04174805 C-154.86791757 159.05216259 -154.86791757 159.05216259 -155.9375 157.125 C-156.99748081 150.85011335 -157.1269441 144.49057833 -157.22558594 138.14233398 C-157.24340118 137.1882666 -157.26121643 136.23419922 -157.27957153 135.2512207 C-157.43301163 126.52693625 -157.52125123 117.8016517 -157.58956528 109.07632351 C-157.63588435 103.22705926 -157.70371795 97.37977836 -157.82226562 91.53149414 C-157.93688387 85.85396027 -157.9974323 80.17821094 -158.0200882 74.49958992 C-158.03784502 72.34286543 -158.07463187 70.18620782 -158.13109589 68.03014946 C-158.55161824 51.19378014 -158.55161824 51.19378014 -154.54655457 46.06057739 C-151.74248266 43.98467131 -149.12781257 42.51412805 -145.9375 41.125 C-144.66739867 40.3848277 -143.40211198 39.63625104 -142.14453125 38.875 C-141.02433594 38.2975 -139.90414062 37.72 -138.75 37.125 C-137.81317383 36.63990967 -137.81317383 36.63990967 -136.85742188 36.14501953 C-135.54868205 35.47013952 -134.2376311 34.79972261 -132.92431641 34.13378906 C-130.92627425 33.11930022 -128.93758264 32.08799516 -126.94921875 31.0546875 C-119.13441787 27.03173414 -111.25234816 23.50345026 -103.046875 20.3515625 C-100.04105536 19.22378169 -100.04105536 19.22378169 -97.68359375 17.97265625 C-95.35038607 16.83998048 -93.49436483 16.91768664 -90.9375 17.125 C-89.9375 18.125 -89.9375 18.125 -89.82283211 19.94018459 C-89.82765036 20.73879437 -89.83246861 21.53740416 -89.83743286 22.36021423 C-89.84187408 23.73211411 -89.84187408 23.73211411 -89.84640503 25.13172913 C-89.85471344 26.14392014 -89.86302185 27.15611115 -89.87158203 28.19897461 C-89.87859131 29.78977844 -89.87859131 29.78977844 -89.88574219 31.41271973 C-89.89628314 33.72954747 -89.90895803 36.04636623 -89.92346573 38.36317253 C-89.94547344 42.05433691 -89.95956837 45.74544982 -89.97116089 49.43666077 C-90.00472562 59.93775433 -90.04551578 70.4387415 -90.10888672 80.93969727 C-90.14705586 87.35998373 -90.16972276 93.7801798 -90.18319321 100.20056343 C-90.19113676 102.62688248 -90.20458221 105.05319115 -90.22412491 107.4794445 C-90.55935295 139.39199295 -90.55935295 139.39199295 -82.9375 170.125 C-82.57914062 171.07246094 -82.22078125 172.01992187 -81.8515625 172.99609375 C-79.15902655 179.79971646 -75.9190736 186.30516572 -72.52832031 192.7824707 C-69.9375 197.80669597 -69.9375 197.80669597 -69.9375 201.125 C-69.2775 201.125 -68.6175 201.125 -67.9375 201.125 C-66.60546875 203.1015625 -66.60546875 203.1015625 -65.125 205.75 C-63.28930693 208.93427349 -61.48108586 211.85499568 -59.0625 214.625 C-56.9375 217.125 -56.9375 217.125 -56.9375 219.125 C-56.2775 219.125 -55.6175 219.125 -54.9375 219.125 C-51.9375 222.58653846 -51.9375 222.58653846 -51.9375 225.125 C-51.2775 225.125 -50.6175 225.125 -49.9375 225.125 C-48.4921875 226.62890625 -48.4921875 226.62890625 -46.8125 228.6875 C-43.64437138 232.44256613 -40.24319764 235.57765657 -36.44140625 238.6796875 C-35.94511719 239.15664062 -35.44882813 239.63359375 -34.9375 240.125 C-34.9375 240.785 -34.9375 241.445 -34.9375 242.125 C-34.35613281 242.393125 -33.77476562 242.66125 -33.17578125 242.9375 C-30.90037451 244.1446966 -29.11404818 245.49296046 -27.125 247.125 C-17.40399563 254.79610559 -6.96048441 261.48746536 4.0625 267.125 C4.0625 267.785 4.0625 268.445 4.0625 269.125 C5.12597656 269.28935547 5.12597656 269.28935547 6.2109375 269.45703125 C9.34602579 270.19141495 11.81166173 271.3669929 14.6875 272.8125 C20.3043533 275.46401342 25.95651212 277.55717713 31.875 279.4375 C32.66277832 279.69168701 33.45055664 279.94587402 34.26220703 280.20776367 C36.51783148 280.90591054 38.77560669 281.53783837 41.0625 282.125 C41.76213867 282.30675781 42.46177734 282.48851562 43.18261719 282.67578125 C47.16716644 283.46925779 48.90641459 283.21250784 52.4765625 281.2109375 C53.56548421 280.32980519 54.6358751 279.42532681 55.6875 278.5 C56.22117188 278.06042969 56.75484375 277.62085938 57.3046875 277.16796875 C58.37129739 276.28516785 59.42913095 275.39164673 60.47753906 274.48730469 C62.11583751 273.07915538 63.78613299 271.71596336 65.4609375 270.3515625 C66.31945312 269.61679687 67.17796875 268.88203125 68.0625 268.125 C68.0625 267.795 68.0625 267.465 68.0625 267.125 C67.50602783 267.07077881 66.94955566 267.01655762 66.3762207 266.96069336 C50.55710096 265.3320405 33.73833441 262.80949059 20.0625 254.125 C18.21808539 253.17906478 16.35498673 252.27669845 14.49023438 251.37158203 C-0.75928347 243.96809347 -0.75928347 243.96809347 -6.9375 239.125 C-6.9375 238.465 -6.9375 237.805 -6.9375 237.125 C-7.5975 236.91875 -8.2575 236.7125 -8.9375 236.5 C-13.00930186 234.63375748 -16.62546998 232.14938473 -19.9375 229.125 C-19.9375 228.465 -19.9375 227.805 -19.9375 227.125 C-20.535625 226.83625 -21.13375 226.5475 -21.75 226.25 C-23.9375 225.125 -23.9375 225.125 -26.9375 223.125 C-26.9375 222.465 -26.9375 221.805 -26.9375 221.125 C-27.5975 221.125 -28.2575 221.125 -28.9375 221.125 C-30.70792436 219.51552331 -32.3100077 217.87494924 -33.9375 216.125 C-34.61296875 215.41988281 -35.2884375 214.71476563 -35.984375 213.98828125 C-44.09033488 205.30931386 -50.45723688 195.63440702 -55.9375 185.125 C-56.5046875 184.07699219 -57.071875 183.02898437 -57.65625 181.94921875 C-61.4164147 174.78737963 -64.10395153 168.04816483 -66.11328125 160.18359375 C-66.83681119 157.20983983 -66.83681119 157.20983983 -67.91971207 154.84044456 C-71.38656153 145.59093666 -71.23211725 134.97654839 -71.19628906 125.21630859 C-71.1997937 124.01124664 -71.20329834 122.80618469 -71.20690918 121.56460571 C-71.21412272 118.30901506 -71.21254874 115.05359133 -71.20615101 111.79800367 C-71.20103128 108.37262636 -71.20579777 104.94725893 -71.20892334 101.5218811 C-71.21254087 95.78458701 -71.20781732 90.04734478 -71.19824219 84.31005859 C-71.1873098 77.68308188 -71.19092656 71.0562278 -71.201895 64.42925394 C-71.21096938 58.71684386 -71.21225398 53.00447067 -71.20701766 47.29205573 C-71.20390544 43.88945032 -71.20346906 40.48690266 -71.21009064 37.08430099 C-71.21515489 33.30269725 -71.2074492 29.52133201 -71.19628906 25.73974609 C-71.20033752 24.61663025 -71.20438599 23.4935144 -71.20855713 22.33636475 C-71.20291748 21.30774323 -71.19727783 20.2791217 -71.19146729 19.21932983 C-71.19071323 18.32678183 -71.18995918 17.43423382 -71.18918228 16.5146389 C-70.91319286 13.89421181 -70.38888309 12.31868126 -68.9375 10.125 C-64.16291256 7.61977638 -59.63559728 6.49523295 -54.30859375 5.5546875 C-53.24125755 5.36484787 -53.24125755 5.36484787 -52.15235901 5.1711731 C-50.65300044 4.90666782 -49.15289201 4.64638139 -47.65209961 4.39013672 C-45.40321058 4.00483333 -43.15772378 3.60311865 -40.91210938 3.19921875 C-27.27916606 0.79337758 -13.84689652 -0.04654419 0 0 Z M-47.9375 29.125 C-48.03155142 31.1193173 -48.05493249 33.11699543 -48.05102539 35.11352539 C-48.05094986 36.39477798 -48.05087433 37.67603058 -48.05079651 38.99610901 C-48.04568909 40.40495848 -48.04047309 41.81380756 -48.03515625 43.22265625 C-48.03329202 44.65612234 -48.03186814 46.08958907 -48.03086853 47.52305603 C-48.02704372 51.30259957 -48.01721377 55.0821049 -48.00616455 58.8616333 C-47.99594963 62.71569298 -47.99137074 66.56975882 -47.98632812 70.42382812 C-47.97559146 77.99090287 -47.95851549 85.55794609 -47.9375 93.125 C-46.34214534 92.97565156 -44.74706265 92.82339612 -43.15209961 92.66992188 C-42.26380966 92.585448 -41.37551971 92.50097412 -40.46031189 92.41394043 C-36.3715495 91.94564996 -32.47760343 90.87991615 -28.50390625 89.84375 C-1.73251828 84.44842099 31.94269862 86.78620077 57.0625 98.125 C58.89216856 98.88389662 60.72553079 99.63394992 62.5625 100.375 C63.3771875 100.71015625 64.191875 101.0453125 65.03125 101.390625 C67.01598737 102.23833332 67.01598737 102.23833332 69.0625 102.125 C69.25952069 114.30239394 69.36263552 126.42872404 68.1875 138.5625 C68.10902832 139.38194092 68.03055664 140.20138184 67.94970703 141.0456543 C67.11085906 148.91971569 65.86800533 156.65957301 62.89453125 164.02734375 C62.30890187 165.50378965 61.7684461 166.99855524 61.26171875 168.50390625 C56.66970321 182.07766143 50.16280048 194.06255295 41.0625 205.125 C40.20785156 206.17300781 40.20785156 206.17300781 39.3359375 207.2421875 C36.41888147 210.72769547 33.28927838 213.92191309 30.0625 217.125 C29.17949219 218.00800781 28.29648438 218.89101562 27.38671875 219.80078125 C24.9453125 222.2421875 22.50390625 224.68359375 20.0625 227.125 C21.56292856 230.12585712 23.80546705 230.40757944 26.875 231.625 C32.81360547 233.99754884 32.81360547 233.99754884 35.328125 235.28515625 C37.03228368 236.27616355 37.03228368 236.27616355 39 236.0625 C42.03561257 234.6826761 43.88254296 232.60772885 46.0625 230.125 C46.0625 229.465 46.0625 228.805 46.0625 228.125 C46.7225 228.125 47.3825 228.125 48.0625 228.125 C69.6279627 208.39750287 83.62965814 176.42929434 88.0625 148.125 C88.23668457 147.14112305 88.41086914 146.15724609 88.59033203 145.14355469 C89.33967139 139.83303257 89.20520622 134.48885267 89.1953125 129.13671875 C89.19626923 127.99717239 89.19722595 126.85762604 89.19821167 125.68354797 C89.1988899 123.28569483 89.1970606 120.88783982 89.19287109 118.48999023 C89.18749305 114.80773853 89.19284086 111.12560743 89.19921875 107.44335938 C89.19855839 105.1119789 89.1972781 102.78059849 89.1953125 100.44921875 C89.19834885 98.79148689 89.19834885 98.79148689 89.20144653 97.1002655 C89.19829437 96.0819313 89.19514221 95.06359711 89.19189453 94.0144043 C89.19109894 93.11618454 89.19030334 92.21796478 89.18948364 91.29252625 C89.20253906 89.07662966 89.20253906 89.07662966 88.0625 87.125 C85.59229915 86.08460253 83.14777538 85.14407999 80.625 84.25 C79.14281825 83.7133732 77.66104505 83.17561657 76.1796875 82.63671875 C75.46264648 82.37681152 74.74560547 82.1169043 74.00683594 81.84912109 C71.71911126 80.99711313 69.4875264 80.03793411 67.25 79.0625 C59.4714823 75.91436467 51.19286356 74.12529984 43.0625 72.125 C41.87398438 71.82335937 40.68546875 71.52171875 39.4609375 71.2109375 C15.79177808 65.61846308 -7.95275314 66.86591563 -31.9375 69.125 C-31.79933041 65.47883329 -31.65068466 61.83316926 -31.5 58.1875 C-31.46068359 57.14658203 -31.42136719 56.10566406 -31.38085938 55.03320312 C-31.33896484 54.04384766 -31.29707031 53.05449219 -31.25390625 52.03515625 C-31.21724854 51.11871338 -31.18059082 50.20227051 -31.14282227 49.25805664 C-30.9375 47.125 -30.9375 47.125 -29.9375 46.125 C-21.27772346 44.90274926 -12.6095434 44.93884468 -3.8815918 44.93969727 C-1.40460617 44.93752595 1.07192176 44.91935848 3.54882812 44.90039062 C17.16671141 44.85206358 30.42431315 46.06957844 43.8125 48.625 C45.08609375 48.8621875 46.3596875 49.099375 47.671875 49.34375 C50.66436945 50.03326485 53.2373703 50.95565824 56.0625 52.125 C57.72361203 52.52388545 59.39107515 52.89681201 61.0625 53.25 C76.92630581 57.11300339 92.24579158 64.11885479 106.75 71.5 C109.7468268 73.27180833 109.7468268 73.27180833 112.0625 73.125 C112.10925404 81.32360148 112.14458446 89.52214539 112.16612434 97.72084808 C112.17647282 101.52960486 112.19046413 105.33826911 112.21337891 109.14697266 C112.23543186 112.83636864 112.24713538 116.52567676 112.25225449 120.21513367 C112.25589304 121.60863118 112.26299381 123.00212499 112.27396011 124.39558411 C112.34956558 134.41972135 111.77754477 144.24667503 110.0625 154.125 C109.7325 154.455 109.4025 154.785 109.0625 155.125 C108.80841949 156.9341757 108.58570008 158.7477606 108.375 160.5625 C106.49418763 173.32114507 101.76345327 185.60640728 96.0625 197.125 C95.53914062 198.23230469 95.01578125 199.33960938 94.4765625 200.48046875 C87.19537283 215.58646632 77.14562869 228.79540942 67.0625 242.125 C70.53134485 243.85942243 74.38060195 243.14951563 78.1875 243 C79.43273437 242.98453125 79.43273437 242.98453125 80.703125 242.96875 C86.94345201 242.714442 91.29948025 241.23390549 96.0625 237.125 C97.98962403 235.00223562 99.50427927 232.75349565 101 230.3125 C101.41475586 229.66087891 101.82951172 229.00925781 102.25683594 228.33789062 C103.55039563 226.28116017 104.8107245 224.20738833 106.0625 222.125 C106.46678223 221.45936035 106.87106445 220.7937207 107.28759766 220.10791016 C112.89764806 210.78824529 117.39620783 201.3830587 121.0625 191.125 C121.44317627 190.07723389 121.44317627 190.07723389 121.83154297 189.00830078 C131.9821605 160.8288808 133.51392007 133.05187726 133.65283203 103.35009766 C133.67526467 99.06463989 133.74457506 94.78117353 133.82317543 90.49643135 C133.87537018 87.1712557 133.89219908 83.84657207 133.89939499 80.5210228 C133.90910704 78.93967536 133.93228098 77.35834849 133.96947098 75.7774086 C134.5142038 67.41735793 134.5142038 67.41735793 131.3681488 60.1022644 C129.28832507 58.77217354 127.38776543 57.93545791 125.0625 57.125 C123.68614301 56.42941585 122.3164497 55.72032028 120.95703125 54.9921875 C119.59841045 54.32392808 118.23772656 53.65984654 116.875 53 C109.58038729 49.44533454 109.58038729 49.44533454 106.4921875 47.53515625 C103.55055475 45.82787422 100.59239834 44.78638745 97.375 43.6875 C92.3738171 41.94727648 87.43655849 40.12961312 82.5390625 38.1171875 C81.31316406 37.62605469 81.31316406 37.62605469 80.0625 37.125 C79.47887695 36.89014893 78.89525391 36.65529785 78.29394531 36.41333008 C73.45317898 34.52348254 68.63181737 33.18439811 63.5625 32.0625 C62.13528918 31.7388429 60.70820518 31.41462605 59.28125 31.08984375 C58.57726074 30.93169189 57.87327148 30.77354004 57.14794922 30.6105957 C55.14219778 30.14355758 53.15517879 29.62700292 51.1640625 29.1015625 C31.53517115 24.15579496 -32.12520735 13.31270735 -47.9375 29.125 Z M-120.0703125 54.3125 C-121.27880859 54.98925781 -121.27880859 54.98925781 -122.51171875 55.6796875 C-123.35347656 56.15664063 -124.19523437 56.63359375 -125.0625 57.125 C-125.91199219 57.60195312 -126.76148438 58.07890625 -127.63671875 58.5703125 C-129.73913538 59.75144544 -131.83925404 60.93647864 -133.9375 62.125 C-133.98419688 71.8709348 -134.01955642 81.61683007 -134.04112434 91.36285305 C-134.05148486 95.89013609 -134.06549949 100.41734162 -134.08837891 104.94458008 C-134.11038723 109.32775172 -134.12212645 113.71084964 -134.12725449 118.09407234 C-134.13090075 119.75189433 -134.13801781 121.40971309 -134.14896011 123.06750298 C-134.24849833 138.79841798 -132.91743302 153.84719262 -128.9375 169.125 C-128.47150391 170.99865234 -128.47150391 170.99865234 -127.99609375 172.91015625 C-126.14525844 180.23733519 -123.92107236 187.18568002 -120.9375 194.125 C-120.60363281 194.99769531 -120.26976562 195.87039062 -119.92578125 196.76953125 C-113.42015004 213.45590463 -103.66649212 229.12951782 -92.52734375 243.09765625 C-90.66738299 245.46944897 -88.95367007 247.92047614 -87.2734375 250.421875 C-85.35836304 252.86331496 -83.15309979 254.95488173 -80.9375 257.125 C-70.9375 267.125 -70.9375 267.125 -68.42578125 269.68359375 C-56.9238691 280.96882938 -42.97448798 291.24894083 -28.9375 299.125 C-26.89542806 300.33264829 -24.85377952 301.54101276 -22.8125 302.75 C-18.86728575 305.04548911 -14.92566996 307.26709963 -10.7890625 309.19921875 C-8.9375 310.125 -8.9375 310.125 -7.0234375 311.39453125 C-3.89222495 313.35933594 -2.06898358 314.35915899 1.6484375 313.58984375 C5.08919777 312.26298165 8.11580009 310.84242102 11.0625 308.609375 C13.22715346 307.00279626 15.33666257 305.99337185 17.8125 304.9375 C18.61171875 304.59332031 19.4109375 304.24914062 20.234375 303.89453125 C20.83765625 303.64058594 21.4409375 303.38664063 22.0625 303.125 C19.67730261 300.37888459 17.43788234 299.29453584 14.0625 298 C1.17630945 292.80168255 -11.49954014 287.07515147 -22.9375 279.125 C-24.01644531 278.39152344 -25.09539062 277.65804687 -26.20703125 276.90234375 C-31.73921971 273.12540159 -37.19206373 269.27503423 -42.44921875 265.12109375 C-43.9160372 263.93959688 -43.9160372 263.93959688 -45.9375 264.125 C-46.2675 263.135 -46.5975 262.145 -46.9375 261.125 C-48.69147955 259.27143529 -48.69147955 259.27143529 -50.8125 257.5 C-51.51117188 256.88898438 -52.20984375 256.27796875 -52.9296875 255.6484375 C-54.95886344 253.9392588 -54.95886344 253.9392588 -57.9375 253.125 C-58.246875 252.485625 -58.55625 251.84625 -58.875 251.1875 C-59.76231191 248.96662796 -59.76231191 248.96662796 -61.9375 248.125 C-64.4957928 246.8458536 -64.69762093 245.65945868 -65.9375 243.125 C-66.89630034 241.84312563 -67.89743957 240.5918707 -68.9375 239.375 C-69.7109375 238.45460937 -69.7109375 238.45460937 -70.5 237.515625 C-71.84373252 235.89323624 -71.84373252 235.89323624 -73.9375 236.125 C-74.205625 235.568125 -74.47375 235.01125 -74.75 234.4375 C-76.04649496 231.91274666 -77.36226323 229.48785516 -78.9375 227.125 C-79.5975 227.125 -80.2575 227.125 -80.9375 227.125 C-81.2675 225.805 -81.5975 224.485 -81.9375 223.125 C-82.5975 223.125 -83.2575 223.125 -83.9375 223.125 C-84.164375 222.279375 -84.39125 221.43375 -84.625 220.5625 C-85.88347917 217.26648313 -87.48324005 214.90034469 -89.58203125 212.09375 C-92.15962042 208.34993172 -94.01045789 204.23043754 -95.9375 200.125 C-96.59105469 198.73667969 -96.59105469 198.73667969 -97.2578125 197.3203125 C-101.82552321 187.44639894 -105.05736278 177.62396173 -107.9375 167.125 C-108.15664062 166.34511719 -108.37578125 165.56523437 -108.6015625 164.76171875 C-109.74867718 160.49000064 -110.32214334 156.30363132 -110.69140625 151.91015625 C-110.75731611 150.10387832 -110.75731611 150.10387832 -111.9375 149.125 C-113.35243439 139.1867249 -113.16397524 129.13537642 -113.25390625 119.1171875 C-113.2745091 117.18091421 -113.29550637 115.24464507 -113.31687927 113.30838013 C-113.37175625 108.24177444 -113.42131537 103.17513051 -113.46972656 98.10845947 C-113.52019451 92.92643885 -113.5757478 87.74447295 -113.63085938 82.5625 C-113.73801973 72.41671354 -113.83955609 62.27087933 -113.9375 52.125 C-116.53641154 52.125 -117.80775633 53.03782047 -120.0703125 54.3125 Z M-47.9375 118.125 C-48.46892174 139.47044006 -44.23509311 158.39940562 -33.9375 177.125 C-33.2775 177.125 -32.6175 177.125 -31.9375 177.125 C-31.669375 177.846875 -31.40125 178.56875 -31.125 179.3125 C-29.93848638 182.12266383 -28.66264361 184.60916557 -26.9375 187.125 C-26.2775 187.125 -25.6175 187.125 -24.9375 187.125 C-24.6075 188.445 -24.2775 189.765 -23.9375 191.125 C-23.2775 191.125 -22.6175 191.125 -21.9375 191.125 C-21.67066406 191.70765625 -21.40382812 192.2903125 -21.12890625 192.890625 C-17.30008267 200.07123841 -10.32613059 206.23268818 -3.9375 211.125 C-3.2775 211.125 -2.6175 211.125 -1.9375 211.125 C-1.9375 211.785 -1.9375 212.445 -1.9375 213.125 C3.27694361 211.60952117 6.53428637 208.271898 10.375 204.625 C11.02017578 204.03074219 11.66535156 203.43648438 12.33007812 202.82421875 C14.77898684 200.55438878 14.77898684 200.55438878 17.0625 198.125 C17.0625 197.465 17.0625 196.805 17.0625 196.125 C17.7225 196.125 18.3825 196.125 19.0625 196.125 C36.47002185 178.02281179 46.34777255 152.9727078 46.125 128.125 C46.12048828 127.15949219 46.11597656 126.19398438 46.11132812 125.19921875 C46.09965417 122.84107911 46.08328021 120.48307398 46.0625 118.125 C38.29744572 115.50699479 30.77814066 113.57188458 22.64453125 112.51953125 C20.0625 112.125 20.0625 112.125 18.0625 111.125 C15.58324848 110.9768114 13.13385627 110.88857616 10.65234375 110.8515625 C9.90078003 110.8392157 9.14921631 110.8268689 8.37487793 110.81414795 C5.91654505 110.78166703 3.4585109 110.76302672 1 110.75 C0.16792023 110.74510559 -0.66415955 110.74021118 -1.52145386 110.73516846 C-16.70488039 110.69818795 -34.24334799 110.78376492 -47.9375 118.125 Z " fill="#ffffff" transform="translate(197.9375,6.875)"/>
<path d="M0 0 C4.23534814 2.22378846 6.68246993 5.09540861 8.79296875 9.31640625 C10.33875681 15.60261102 9.80653471 20.53212579 6.79296875 26.31640625 C2.52341385 31.0942415 -1.93822341 32.88121628 -8.20703125 33.31640625 C-14.70748352 33.0768586 -18.46680988 30.82117593 -22.89453125 26.16796875 C-25.95950695 21.84416375 -25.68670823 16.41519489 -25.20703125 11.31640625 C-21.39743405 0.31090324 -10.7698207 -3.33578517 0 0 Z " fill="#f0f0f0" transform="translate(205.20703125,143.68359375)"/>
</svg>
